<?xml version="1.0" standalone="no"?>
<!DOCTYPE svg PUBLIC "-//W3C//DTD SVG 1.1//EN"
"http://www.w3.org/Graphics/SVG/1.1/DTD/svg11.dtd">

<svg width="701" height="458" view_box="0 0 701 458"
xmlns="http://www.w3.org/2000/svg"
xmlns:link="http://www.w3.org/1999/xlink">\n\n<desc>Généré par Mocodo 2.3.7 le Tue, 24 Sep 2019 14:01:05</desc>

<rect id="frame" x="0" y="0" width="701" height="458" fill="#f7f7f7" stroke="none" stroke-width="0"/>

<!-- Association APPARTENIR -->
<line x1="158" y1="43" x2="276" y2="43" stroke="#4393c3" stroke-width="2"/>
<text x="203" y="60.0" fill="#b2182b" font-family="Verdana" font-size="12">0,N</text>
<line x1="276" y1="195" x2="276" y2="43" stroke="#4393c3" stroke-width="2"/>
<text x="281.0" y="94" fill="#b2182b" font-family="Verdana" font-size="12">1,N</text>
<g id="association-APPARTENIR">
	<path d="M 308 18 a 14 14 90 0 1 14 14 V 43 h -92 V 32 a 14 14 90 0 1 14 -14" fill="#92c5de" stroke="#92c5de" stroke-width="0"/>
	<path d="M 322 43.0 v 11 a 14 14 90 0 1 -14 14 H 244 a 14 14 90 0 1 -14 -14 V 43.0 H 92" fill="#d1e5f0" stroke="#d1e5f0" stroke-width="0"/>
	<rect x="230" y="18" width="92" height="50" fill="none" rx="14" stroke="#4393c3" stroke-width="2"/>
	<line x1="230" y1="43" x2="322" y2="43" stroke="#4393c3" stroke-width="1"/>
	<text x="237" y="35.7" fill="#000000" font-family="Verdana" font-size="12">APPARTENIR</text>
</g>

<!-- Association ATTRIBUER -->
<line x1="56" y1="195" x2="56" y2="381" stroke="#4393c3" stroke-width="2"/>
<text x="61.0" y="246" fill="#b2182b" font-family="Verdana" font-size="12">0,N</text>
<line x1="158" y1="381" x2="56" y2="381" stroke="#4393c3" stroke-width="2"/>
<text x="104" y="398.0" fill="#b2182b" font-family="Verdana" font-size="12">1,1</text>
<g id="association-ATTRIBUER">
	<path d="M 84 356 a 14 14 90 0 1 14 14 V 381 h -84 V 370 a 14 14 90 0 1 14 -14" fill="#92c5de" stroke="#92c5de" stroke-width="0"/>
	<path d="M 98 381.0 v 11 a 14 14 90 0 1 -14 14 H 28 a 14 14 90 0 1 -14 -14 V 381.0 H 84" fill="#d1e5f0" stroke="#d1e5f0" stroke-width="0"/>
	<rect x="14" y="356" width="84" height="50" fill="none" rx="14" stroke="#4393c3" stroke-width="2"/>
	<line x1="14" y1="381" x2="98" y2="381" stroke="#4393c3" stroke-width="1"/>
	<text x="21" y="373.7" fill="#000000" font-family="Verdana" font-size="12">ATTRIBUER</text>
</g>

<!-- Association LIER -->
<line x1="276" y1="195" x2="158" y2="195" stroke="#4393c3" stroke-width="2"/>
<text x="193" y="212.0" fill="#b2182b" font-family="Verdana" font-size="12">0,N</text>
<line x1="158" y1="381" x2="158" y2="195" stroke="#4393c3" stroke-width="2"/>
<text x="163.0" y="331" fill="#b2182b" font-family="Verdana" font-size="12">1,1</text>
<g id="association-LIER">
	<path d="M 166 170 a 14 14 90 0 1 14 14 V 195 h -44 V 184 a 14 14 90 0 1 14 -14" fill="#92c5de" stroke="#92c5de" stroke-width="0"/>
	<path d="M 180 195.0 v 11 a 14 14 90 0 1 -14 14 H 150 a 14 14 90 0 1 -14 -14 V 195.0 H 44" fill="#d1e5f0" stroke="#d1e5f0" stroke-width="0"/>
	<rect x="136" y="170" width="44" height="50" fill="none" rx="14" stroke="#4393c3" stroke-width="2"/>
	<line x1="136" y1="195" x2="180" y2="195" stroke="#4393c3" stroke-width="1"/>
	<text x="143" y="187.7" fill="#000000" font-family="Verdana" font-size="12">LIER</text>
</g>

<!-- Association UTILISER -->
<line x1="423" y1="381" x2="613" y2="381" stroke="#4393c3" stroke-width="2"/>
<text x="507" y="398.0" fill="#b2182b" font-family="Verdana" font-size="12">1,N</text>
<line x1="613" y1="195" x2="613" y2="381" stroke="#4393c3" stroke-width="2"/>
<text x="618.0" y="263" fill="#b2182b" font-family="Verdana" font-size="12">1,N</text>
<g id="association-UTILISER">
	<path d="M 678 356 a 14 14 90 0 1 14 14 V 381 h -158 V 370 a 14 14 90 0 1 14 -14" fill="#92c5de" stroke="#92c5de" stroke-width="0"/>
	<path d="M 692 381.0 v 11 a 14 14 90 0 1 -14 14 H 548 a 14 14 90 0 1 -14 -14 V 381.0 H 158" fill="#d1e5f0" stroke="#d1e5f0" stroke-width="0"/>
	<rect x="534" y="356" width="158" height="50" fill="none" rx="14" stroke="#4393c3" stroke-width="2"/>
	<line x1="534" y1="381" x2="692" y2="381" stroke="#4393c3" stroke-width="1"/>
	<text x="584" y="373.7" fill="#000000" font-family="Verdana" font-size="12">UTILISER</text>
	<text x="541" y="398.8" fill="#000000" font-family="Verdana" font-size="12">nombre_de_plateforme</text>
</g>

<!-- Association AVOIR -->
<line x1="423" y1="381" x2="276" y2="381" stroke="#4393c3" stroke-width="2"/>
<text x="317" y="398.0" fill="#b2182b" font-family="Verdana" font-size="12">1,N</text>
<line x1="276" y1="195" x2="276" y2="381" stroke="#4393c3" stroke-width="2"/>
<text x="281.0" y="305" fill="#b2182b" font-family="Verdana" font-size="12">1,1</text>
<g id="association-AVOIR">
	<path d="M 289 356 a 14 14 90 0 1 14 14 V 381 h -54 V 370 a 14 14 90 0 1 14 -14" fill="#92c5de" stroke="#92c5de" stroke-width="0"/>
	<path d="M 303 381.0 v 11 a 14 14 90 0 1 -14 14 H 263 a 14 14 90 0 1 -14 -14 V 381.0 H 54" fill="#d1e5f0" stroke="#d1e5f0" stroke-width="0"/>
	<rect x="249" y="356" width="54" height="50" fill="none" rx="14" stroke="#4393c3" stroke-width="2"/>
	<line x1="249" y1="381" x2="303" y2="381" stroke="#4393c3" stroke-width="1"/>
	<text x="256" y="373.7" fill="#000000" font-family="Verdana" font-size="12">AVOIR</text>
</g>

<!-- Association ACCUEILLIR -->
<line x1="276" y1="195" x2="423" y2="195" stroke="#4393c3" stroke-width="2"/>
<text x="337" y="212.0" fill="#b2182b" font-family="Verdana" font-size="12">1,N</text>
<line x1="613" y1="195" x2="423" y2="195" stroke="#4393c3" stroke-width="2"/>
<text x="532" y="212.0" fill="#b2182b" font-family="Verdana" font-size="12">1,N</text>
<g id="association-ACCUEILLIR">
	<path d="M 468 170 a 14 14 90 0 1 14 14 V 195 h -118 V 184 a 14 14 90 0 1 14 -14" fill="#92c5de" stroke="#92c5de" stroke-width="0"/>
	<path d="M 482 195.0 v 11 a 14 14 90 0 1 -14 14 H 378 a 14 14 90 0 1 -14 -14 V 195.0 H 118" fill="#d1e5f0" stroke="#d1e5f0" stroke-width="0"/>
	<rect x="364" y="170" width="118" height="50" fill="none" rx="14" stroke="#4393c3" stroke-width="2"/>
	<line x1="364" y1="195" x2="482" y2="195" stroke="#4393c3" stroke-width="1"/>
	<text x="386" y="187.7" fill="#000000" font-family="Verdana" font-size="12">ACCUEILLIR</text>
	<text x="371" y="212.8" fill="#000000" font-family="Verdana" font-size="12">nombre_de_jeux</text>
</g>

<!-- Entity UTILISATEUR -->
<g id="entity-UTILISATEUR">
	<g id="frame-UTILISATEUR">
		<rect x="9" y="161" width="94" height="25" fill="#f4a582" stroke="#f4a582" stroke-width="0"/>
		<rect x="9" y="186.0" width="94" height="43" fill="#fddbc7" stroke="#fddbc7" stroke-width="0"/>
		<rect x="9" y="161" width="94" height="68" fill="none" stroke="#d6604d" stroke-width="2"/>
		<line x1="9" y1="186" x2="103" y2="186" stroke="#d6604d" stroke-width="1"/>
	</g>
	<text x="14" y="178.7" fill="#000000" font-family="Verdana" font-size="12">UTILISATEUR</text>
	<text x="14" y="203.8" fill="#000000" font-family="Verdana" font-size="12">id_uti</text>
	<line x1="14" y1="206" x2="49" y2="206" stroke="#000000" stroke-width="1"/>
	<text x="14" y="220.8" fill="#000000" font-family="Verdana" font-size="12">nom_uti</text>
</g>

<!-- Entity PLATEFORME -->
<g id="entity-PLATEFORME">
	<g id="frame-PLATEFORME">
		<rect x="559" y="144" width="108" height="25" fill="#f4a582" stroke="#f4a582" stroke-width="0"/>
		<rect x="559" y="169.0" width="108" height="77" fill="#fddbc7" stroke="#fddbc7" stroke-width="0"/>
		<rect x="559" y="144" width="108" height="102" fill="none" stroke="#d6604d" stroke-width="2"/>
		<line x1="559" y1="169" x2="667" y2="169" stroke="#d6604d" stroke-width="1"/>
	</g>
	<text x="572" y="161.7" fill="#000000" font-family="Verdana" font-size="12">PLATEFORME</text>
	<text x="564" y="186.7" fill="#000000" font-family="Verdana" font-size="12">id_plat</text>
	<line x1="564" y1="189" x2="606" y2="189" stroke="#000000" stroke-width="1"/>
	<text x="564" y="203.8" fill="#000000" font-family="Verdana" font-size="12">nom_plat</text>
	<text x="564" y="220.8" fill="#000000" font-family="Verdana" font-size="12">prix_plat</text>
	<text x="564" y="237.8" fill="#000000" font-family="Verdana" font-size="12">date_lancement</text>
</g>

<!-- Entity JEU -->
<g id="entity-JEU">
	<g id="frame-JEU">
		<rect x="220" y="102" width="112" height="25" fill="#f4a582" stroke="#f4a582" stroke-width="0"/>
		<rect x="220" y="127.0" width="112" height="161" fill="#fddbc7" stroke="#fddbc7" stroke-width="0"/>
		<rect x="220" y="102" width="112" height="186" fill="none" stroke="#d6604d" stroke-width="2"/>
		<line x1="220" y1="127" x2="332" y2="127" stroke="#d6604d" stroke-width="1"/>
	</g>
	<text x="264" y="119.7" fill="#000000" font-family="Verdana" font-size="12">JEU</text>
	<text x="225" y="144.7" fill="#000000" font-family="Verdana" font-size="12">id_jeu</text>
	<line x1="225" y1="147" x2="263" y2="147" stroke="#000000" stroke-width="1"/>
	<text x="225" y="161.7" fill="#000000" font-family="Verdana" font-size="12">nom_jeu</text>
	<text x="225" y="178.7" fill="#000000" font-family="Verdana" font-size="12">jour_de_sortie</text>
	<text x="225" y="195.8" fill="#000000" font-family="Verdana" font-size="12">mois_de_sortie</text>
	<text x="225" y="212.8" fill="#000000" font-family="Verdana" font-size="12">annee_de_sortie</text>
	<text x="225" y="229.8" fill="#000000" font-family="Verdana" font-size="12">synopsis</text>
	<text x="225" y="246.8" fill="#000000" font-family="Verdana" font-size="12">prix</text>
	<text x="225" y="263.8" fill="#000000" font-family="Verdana" font-size="12">images</text>
	<text x="225" y="280.8" fill="#000000" font-family="Verdana" font-size="12">videos</text>
</g>

<!-- Entity NOTE -->
<g id="entity-NOTE">
	<g id="frame-NOTE">
		<rect x="130" y="339" width="56" height="25" fill="#f4a582" stroke="#f4a582" stroke-width="0"/>
		<rect x="130" y="364.0" width="56" height="59" fill="#fddbc7" stroke="#fddbc7" stroke-width="0"/>
		<rect x="130" y="339" width="56" height="84" fill="none" stroke="#d6604d" stroke-width="2"/>
		<line x1="130" y1="364" x2="186" y2="364" stroke="#d6604d" stroke-width="1"/>
	</g>
	<text x="141" y="356.7" fill="#000000" font-family="Verdana" font-size="12">NOTE</text>
	<text x="135" y="381.8" fill="#000000" font-family="Verdana" font-size="12">id_note</text>
	<line x1="135" y1="384" x2="181" y2="384" stroke="#000000" stroke-width="1"/>
	<text x="135" y="398.8" fill="#000000" font-family="Verdana" font-size="12">note</text>
	<text x="135" y="415.8" fill="#000000" font-family="Verdana" font-size="12">critique</text>
</g>

<!-- Entity EDITEUR/DEVELOPPEUR -->
<g id="entity-EDITEUR/DEVELOPPEUR">
	<g id="frame-EDITEUR/DEVELOPPEUR">
		<rect x="344" y="313" width="158" height="25" fill="#f4a582" stroke="#f4a582" stroke-width="0"/>
		<rect x="344" y="338.0" width="158" height="111" fill="#fddbc7" stroke="#fddbc7" stroke-width="0"/>
		<rect x="344" y="313" width="158" height="136" fill="none" stroke="#d6604d" stroke-width="2"/>
		<line x1="344" y1="338" x2="502" y2="338" stroke="#d6604d" stroke-width="1"/>
	</g>
	<text x="349" y="330.7" fill="#000000" font-family="Verdana" font-size="12">EDITEUR/DEVELOPPEUR</text>
	<text x="349" y="355.7" fill="#000000" font-family="Verdana" font-size="12">id_edit</text>
	<line x1="349" y1="358" x2="391" y2="358" stroke="#000000" stroke-width="1"/>
	<text x="349" y="372.7" fill="#000000" font-family="Verdana" font-size="12">nom_edit</text>
	<text x="349" y="389.8" fill="#000000" font-family="Verdana" font-size="12">date_fondation</text>
	<text x="349" y="406.8" fill="#000000" font-family="Verdana" font-size="12">siege</text>
	<text x="349" y="423.8" fill="#000000" font-family="Verdana" font-size="12">pays local</text>
	<text x="349" y="440.8" fill="#000000" font-family="Verdana" font-size="12">description</text>
</g>

<!-- Entity GENRE -->
<g id="entity-GENRE">
	<g id="frame-GENRE">
		<rect x="118" y="9" width="80" height="25" fill="#f4a582" stroke="#f4a582" stroke-width="0"/>
		<rect x="118" y="34.0" width="80" height="43" fill="#fddbc7" stroke="#fddbc7" stroke-width="0"/>
		<rect x="118" y="9" width="80" height="68" fill="none" stroke="#d6604d" stroke-width="2"/>
		<line x1="118" y1="34" x2="198" y2="34" stroke="#d6604d" stroke-width="1"/>
	</g>
	<text x="136" y="26.7" fill="#000000" font-family="Verdana" font-size="12">GENRE</text>
	<text x="123" y="51.8" fill="#000000" font-family="Verdana" font-size="12">id_genre</text>
	<line x1="123" y1="54" x2="177" y2="54" stroke="#000000" stroke-width="1"/>
	<text x="123" y="68.8" fill="#000000" font-family="Verdana" font-size="12">type_genre</text>
</g>
</svg>