<?xml version="1.0" standalone="no"?>
<!DOCTYPE svg PUBLIC "-//W3C//DTD SVG 1.1//EN"
"http://www.w3.org/Graphics/SVG/1.1/DTD/svg11.dtd">

<svg width="656" height="380" view_box="0 0 656 380"
xmlns="http://www.w3.org/2000/svg"
xmlns:link="http://www.w3.org/1999/xlink">\n\n<desc>Généré par Mocodo 2.3.7 le Mon, 28 Oct 2019 09:24:50</desc>

<rect id="frame" x="0" y="0" width="656" height="380" fill="#f7f7f7" stroke="none" stroke-width="0"/>

<!-- Association jeu_has_genre -->
<line x1="161" y1="43" x2="282" y2="43" stroke="#4393c3" stroke-width="2"/>
<text x="201" y="60.0" fill="#b2182b" font-family="Verdana" font-size="12">0,N</text>
<line x1="282" y1="169" x2="282" y2="43" stroke="#4393c3" stroke-width="2"/>
<text x="287.0" y="85" fill="#b2182b" font-family="Verdana" font-size="12">1,N</text>
<g id="association-jeu_has_genre">
	<path d="M 321 18 a 14 14 90 0 1 14 14 V 43 h -106 V 32 a 14 14 90 0 1 14 -14" fill="#92c5de" stroke="#92c5de" stroke-width="0"/>
	<path d="M 335 43.0 v 11 a 14 14 90 0 1 -14 14 H 243 a 14 14 90 0 1 -14 -14 V 43.0 H 106" fill="#d1e5f0" stroke="#d1e5f0" stroke-width="0"/>
	<rect x="229" y="18" width="106" height="50" fill="none" rx="14" stroke="#4393c3" stroke-width="2"/>
	<line x1="229" y1="43" x2="335" y2="43" stroke="#4393c3" stroke-width="1"/>
	<text x="236" y="35.7" fill="#000000" font-family="Verdana" font-size="12">jeu_has_genre</text>
</g>

<!-- Association jeu_has_editdev -->
<line x1="413" y1="295" x2="282" y2="295" stroke="#4393c3" stroke-width="2"/>
<text x="346" y="312.0" fill="#b2182b" font-family="Verdana" font-size="12">1,N</text>
<line x1="282" y1="169" x2="282" y2="295" stroke="#4393c3" stroke-width="2"/>
<text x="287.0" y="262" fill="#b2182b" font-family="Verdana" font-size="12">1,N</text>
<g id="association-jeu_has_editdev">
	<path d="M 326 270 a 14 14 90 0 1 14 14 V 295 h -116 V 284 a 14 14 90 0 1 14 -14" fill="#92c5de" stroke="#92c5de" stroke-width="0"/>
	<path d="M 340 295.0 v 11 a 14 14 90 0 1 -14 14 H 238 a 14 14 90 0 1 -14 -14 V 295.0 H 116" fill="#d1e5f0" stroke="#d1e5f0" stroke-width="0"/>
	<rect x="224" y="270" width="116" height="50" fill="none" rx="14" stroke="#4393c3" stroke-width="2"/>
	<line x1="224" y1="295" x2="340" y2="295" stroke="#4393c3" stroke-width="1"/>
	<text x="231" y="287.7" fill="#000000" font-family="Verdana" font-size="12">jeu_has_editdev</text>
</g>

<!-- Association ATTRIBUER -->
<line x1="56" y1="169" x2="56" y2="295" stroke="#4393c3" stroke-width="2"/>
<text x="61.0" y="245" fill="#b2182b" font-family="Verdana" font-size="12">0,N</text>
<line x1="161" y1="295" x2="56" y2="295" stroke="#4393c3" stroke-width="2"/>
<text x="104" y="312.0" fill="#b2182b" font-family="Verdana" font-size="12">1,1</text>
<g id="association-ATTRIBUER">
	<path d="M 84 270 a 14 14 90 0 1 14 14 V 295 h -84 V 284 a 14 14 90 0 1 14 -14" fill="#92c5de" stroke="#92c5de" stroke-width="0"/>
	<path d="M 98 295.0 v 11 a 14 14 90 0 1 -14 14 H 28 a 14 14 90 0 1 -14 -14 V 295.0 H 84" fill="#d1e5f0" stroke="#d1e5f0" stroke-width="0"/>
	<rect x="14" y="270" width="84" height="50" fill="none" rx="14" stroke="#4393c3" stroke-width="2"/>
	<line x1="14" y1="295" x2="98" y2="295" stroke="#4393c3" stroke-width="1"/>
	<text x="21" y="287.7" fill="#000000" font-family="Verdana" font-size="12">ATTRIBUER</text>
</g>

<!-- Association jeu_has_plateforme -->
<line x1="282" y1="169" x2="413" y2="169" stroke="#4393c3" stroke-width="2"/>
<text x="318" y="186.0" fill="#b2182b" font-family="Verdana" font-size="12">1,N</text>
<line x1="566" y1="169" x2="413" y2="169" stroke="#4393c3" stroke-width="2"/>
<text x="489" y="186.0" fill="#b2182b" font-family="Verdana" font-size="12">1,N</text>
<g id="association-jeu_has_plateforme">
	<path d="M 467 144 a 14 14 90 0 1 14 14 V 169 h -136 V 158 a 14 14 90 0 1 14 -14" fill="#92c5de" stroke="#92c5de" stroke-width="0"/>
	<path d="M 481 169.0 v 11 a 14 14 90 0 1 -14 14 H 359 a 14 14 90 0 1 -14 -14 V 169.0 H 136" fill="#d1e5f0" stroke="#d1e5f0" stroke-width="0"/>
	<rect x="345" y="144" width="136" height="50" fill="none" rx="14" stroke="#4393c3" stroke-width="2"/>
	<line x1="345" y1="169" x2="481" y2="169" stroke="#4393c3" stroke-width="1"/>
	<text x="352" y="161.7" fill="#000000" font-family="Verdana" font-size="12">jeu_has_plateforme</text>
	<text x="352" y="186.8" fill="#000000" font-family="Verdana" font-size="12">nombre_de_jeux</text>
</g>

<!-- Association LIER -->
<line x1="282" y1="169" x2="161" y2="169" stroke="#4393c3" stroke-width="2"/>
<text x="224" y="186.0" fill="#b2182b" font-family="Verdana" font-size="12">0,N</text>
<line x1="161" y1="295" x2="161" y2="169" stroke="#4393c3" stroke-width="2"/>
<text x="166.0" y="245" fill="#b2182b" font-family="Verdana" font-size="12">1,1</text>
<g id="association-LIER">
	<path d="M 169 144 a 14 14 90 0 1 14 14 V 169 h -44 V 158 a 14 14 90 0 1 14 -14" fill="#92c5de" stroke="#92c5de" stroke-width="0"/>
	<path d="M 183 169.0 v 11 a 14 14 90 0 1 -14 14 H 153 a 14 14 90 0 1 -14 -14 V 169.0 H 44" fill="#d1e5f0" stroke="#d1e5f0" stroke-width="0"/>
	<rect x="139" y="144" width="44" height="50" fill="none" rx="14" stroke="#4393c3" stroke-width="2"/>
	<line x1="139" y1="169" x2="183" y2="169" stroke="#4393c3" stroke-width="1"/>
	<text x="146" y="161.7" fill="#000000" font-family="Verdana" font-size="12">LIER</text>
</g>

<!-- Association plateforme_has_editdev -->
<line x1="413" y1="295" x2="566" y2="295" stroke="#4393c3" stroke-width="2"/>
<text x="458" y="312.0" fill="#b2182b" font-family="Verdana" font-size="12">1,N</text>
<line x1="566" y1="169" x2="566" y2="295" stroke="#4393c3" stroke-width="2"/>
<text x="571.0" y="237" fill="#b2182b" font-family="Verdana" font-size="12">1,N</text>
<g id="association-plateforme_has_editdev">
	<path d="M 633 270 a 14 14 90 0 1 14 14 V 295 h -162 V 284 a 14 14 90 0 1 14 -14" fill="#92c5de" stroke="#92c5de" stroke-width="0"/>
	<path d="M 647 295.0 v 11 a 14 14 90 0 1 -14 14 H 499 a 14 14 90 0 1 -14 -14 V 295.0 H 162" fill="#d1e5f0" stroke="#d1e5f0" stroke-width="0"/>
	<rect x="485" y="270" width="162" height="50" fill="none" rx="14" stroke="#4393c3" stroke-width="2"/>
	<line x1="485" y1="295" x2="647" y2="295" stroke="#4393c3" stroke-width="1"/>
	<text x="492" y="287.7" fill="#000000" font-family="Verdana" font-size="12">plateforme_has_editdev</text>
	<text x="492" y="312.8" fill="#000000" font-family="Verdana" font-size="12">nombre_de_plateforme</text>
</g>

<!-- Entity tbl_jeu -->
<g id="entity-tbl_jeu">
	<g id="frame-tbl_jeu">
		<rect x="251" y="93" width="62" height="25" fill="#f4a582" stroke="#f4a582" stroke-width="0"/>
		<rect x="251" y="118.0" width="62" height="127" fill="#fddbc7" stroke="#fddbc7" stroke-width="0"/>
		<rect x="251" y="93" width="62" height="152" fill="none" stroke="#d6604d" stroke-width="2"/>
		<line x1="251" y1="118" x2="313" y2="118" stroke="#d6604d" stroke-width="1"/>
	</g>
	<text x="260" y="110.7" fill="#000000" font-family="Verdana" font-size="12">tbl_jeu</text>
	<text x="256" y="135.7" fill="#000000" font-family="Verdana" font-size="12">id</text>
	<line x1="256" y1="138" x2="268" y2="138" stroke="#000000" stroke-width="1"/>
	<text x="256" y="152.7" fill="#000000" font-family="Verdana" font-size="12">nom</text>
	<text x="256" y="169.8" fill="#000000" font-family="Verdana" font-size="12">sortie</text>
	<text x="256" y="186.8" fill="#000000" font-family="Verdana" font-size="12">synopsis</text>
	<text x="256" y="203.8" fill="#000000" font-family="Verdana" font-size="12">images</text>
	<text x="256" y="220.8" fill="#000000" font-family="Verdana" font-size="12">videos</text>
	<text x="256" y="237.8" fill="#000000" font-family="Verdana" font-size="12">articles</text>
</g>

<!-- Entity tbl_note -->
<g id="entity-tbl_note">
	<g id="frame-tbl_note">
		<rect x="130" y="253" width="62" height="25" fill="#f4a582" stroke="#f4a582" stroke-width="0"/>
		<rect x="130" y="278.0" width="62" height="59" fill="#fddbc7" stroke="#fddbc7" stroke-width="0"/>
		<rect x="130" y="253" width="62" height="84" fill="none" stroke="#d6604d" stroke-width="2"/>
		<line x1="130" y1="278" x2="192" y2="278" stroke="#d6604d" stroke-width="1"/>
	</g>
	<text x="135" y="270.7" fill="#000000" font-family="Verdana" font-size="12">tbl_note</text>
	<text x="135" y="295.8" fill="#000000" font-family="Verdana" font-size="12">id</text>
	<line x1="135" y1="298" x2="147" y2="298" stroke="#000000" stroke-width="1"/>
	<text x="135" y="312.8" fill="#000000" font-family="Verdana" font-size="12">note</text>
	<text x="135" y="329.8" fill="#000000" font-family="Verdana" font-size="12">critique</text>
</g>

<!-- Entity tbl_genre -->
<g id="entity-tbl_genre">
	<g id="frame-tbl_genre">
		<rect x="126" y="9" width="70" height="25" fill="#f4a582" stroke="#f4a582" stroke-width="0"/>
		<rect x="126" y="34.0" width="70" height="43" fill="#fddbc7" stroke="#fddbc7" stroke-width="0"/>
		<rect x="126" y="9" width="70" height="68" fill="none" stroke="#d6604d" stroke-width="2"/>
		<line x1="126" y1="34" x2="196" y2="34" stroke="#d6604d" stroke-width="1"/>
	</g>
	<text x="131" y="26.7" fill="#000000" font-family="Verdana" font-size="12">tbl_genre</text>
	<text x="131" y="51.8" fill="#000000" font-family="Verdana" font-size="12">id</text>
	<line x1="131" y1="54" x2="143" y2="54" stroke="#000000" stroke-width="1"/>
	<text x="131" y="68.8" fill="#000000" font-family="Verdana" font-size="12">type</text>
</g>

<!-- Entity tbl_plateforme -->
<g id="entity-tbl_plateforme">
	<g id="frame-tbl_plateforme">
		<rect x="516" y="118" width="100" height="25" fill="#f4a582" stroke="#f4a582" stroke-width="0"/>
		<rect x="516" y="143.0" width="100" height="77" fill="#fddbc7" stroke="#fddbc7" stroke-width="0"/>
		<rect x="516" y="118" width="100" height="102" fill="none" stroke="#d6604d" stroke-width="2"/>
		<line x1="516" y1="143" x2="616" y2="143" stroke="#d6604d" stroke-width="1"/>
	</g>
	<text x="521" y="135.7" fill="#000000" font-family="Verdana" font-size="12">tbl_plateforme</text>
	<text x="521" y="160.7" fill="#000000" font-family="Verdana" font-size="12">id</text>
	<line x1="521" y1="163" x2="533" y2="163" stroke="#000000" stroke-width="1"/>
	<text x="521" y="177.8" fill="#000000" font-family="Verdana" font-size="12">nom</text>
	<text x="521" y="194.8" fill="#000000" font-family="Verdana" font-size="12">prix</text>
	<text x="521" y="211.8" fill="#000000" font-family="Verdana" font-size="12">lancement</text>
</g>

<!-- Entity tbl_editdev -->
<g id="entity-tbl_editdev">
	<g id="frame-tbl_editdev">
		<rect x="373" y="219" width="80" height="25" fill="#f4a582" stroke="#f4a582" stroke-width="0"/>
		<rect x="373" y="244.0" width="80" height="127" fill="#fddbc7" stroke="#fddbc7" stroke-width="0"/>
		<rect x="373" y="219" width="80" height="152" fill="none" stroke="#d6604d" stroke-width="2"/>
		<line x1="373" y1="244" x2="453" y2="244" stroke="#d6604d" stroke-width="1"/>
	</g>
	<text x="378" y="236.7" fill="#000000" font-family="Verdana" font-size="12">tbl_editdev</text>
	<text x="378" y="261.7" fill="#000000" font-family="Verdana" font-size="12">id</text>
	<line x1="378" y1="264" x2="390" y2="264" stroke="#000000" stroke-width="1"/>
	<text x="378" y="278.7" fill="#000000" font-family="Verdana" font-size="12">nom</text>
	<text x="378" y="295.8" fill="#000000" font-family="Verdana" font-size="12">date</text>
	<text x="378" y="312.8" fill="#000000" font-family="Verdana" font-size="12">siege</text>
	<text x="378" y="329.8" fill="#000000" font-family="Verdana" font-size="12">pays_local</text>
	<text x="378" y="346.8" fill="#000000" font-family="Verdana" font-size="12">description</text>
	<text x="378" y="363.8" fill="#000000" font-family="Verdana" font-size="12">dev</text>
</g>

<!-- Entity tbl_utilisateur -->
<g id="entity-tbl_utilisateur">
	<g id="frame-tbl_utilisateur">
		<rect x="9" y="110" width="94" height="25" fill="#f4a582" stroke="#f4a582" stroke-width="0"/>
		<rect x="9" y="135.0" width="94" height="93" fill="#fddbc7" stroke="#fddbc7" stroke-width="0"/>
		<rect x="9" y="110" width="94" height="118" fill="none" stroke="#d6604d" stroke-width="2"/>
		<line x1="9" y1="135" x2="103" y2="135" stroke="#d6604d" stroke-width="1"/>
	</g>
	<text x="14" y="127.7" fill="#000000" font-family="Verdana" font-size="12">tbl_utilisateur</text>
	<text x="14" y="152.7" fill="#000000" font-family="Verdana" font-size="12">id</text>
	<line x1="14" y1="155" x2="26" y2="155" stroke="#000000" stroke-width="1"/>
	<text x="14" y="169.8" fill="#000000" font-family="Verdana" font-size="12">nom</text>
	<text x="14" y="186.8" fill="#000000" font-family="Verdana" font-size="12">email</text>
	<text x="14" y="203.8" fill="#000000" font-family="Verdana" font-size="12">role</text>
	<text x="14" y="220.8" fill="#000000" font-family="Verdana" font-size="12">isactive</text>
</g>
</svg>