<?xml version="1.0" standalone="no"?>
<!DOCTYPE svg PUBLIC "-//W3C//DTD SVG 1.1//EN"
"http://www.w3.org/Graphics/SVG/1.1/DTD/svg11.dtd">

<svg width="668" height="373" view_box="0 0 668 373"
xmlns="http://www.w3.org/2000/svg"
xmlns:link="http://www.w3.org/1999/xlink">\n\n<desc>Généré par Mocodo 2.3.7 le Sat, 28 Sep 2019 04:24:52</desc>

<rect id="frame" x="0" y="0" width="668" height="373" fill="#f7f7f7" stroke="none" stroke-width="0"/>

<!-- Association APPARTENIR -->
<line x1="158" y1="43" x2="276" y2="43" stroke="#4393c3" stroke-width="2"/>
<text x="203" y="60.0" fill="#b2182b" font-family="Verdana" font-size="12">0,N</text>
<line x1="276" y1="170" x2="276" y2="43" stroke="#4393c3" stroke-width="2"/>
<text x="281.0" y="94" fill="#b2182b" font-family="Verdana" font-size="12">1,N</text>
<g id="association-APPARTENIR">
	<path d="M 308 18 a 14 14 90 0 1 14 14 V 43 h -92 V 32 a 14 14 90 0 1 14 -14" fill="#92c5de" stroke="#92c5de" stroke-width="0"/>
	<path d="M 322 43.0 v 11 a 14 14 90 0 1 -14 14 H 244 a 14 14 90 0 1 -14 -14 V 43.0 H 92" fill="#d1e5f0" stroke="#d1e5f0" stroke-width="0"/>
	<rect x="230" y="18" width="92" height="50" fill="none" rx="14" stroke="#4393c3" stroke-width="2"/>
	<line x1="230" y1="43" x2="322" y2="43" stroke="#4393c3" stroke-width="1"/>
	<text x="237" y="35.7" fill="#000000" font-family="Verdana" font-size="12">APPARTENIR</text>
</g>

<!-- Association ATTRIBUER -->
<line x1="56" y1="170" x2="56" y2="296" stroke="#4393c3" stroke-width="2"/>
<text x="61.0" y="246" fill="#b2182b" font-family="Verdana" font-size="12">0,N</text>
<line x1="158" y1="296" x2="56" y2="296" stroke="#4393c3" stroke-width="2"/>
<text x="104" y="313.0" fill="#b2182b" font-family="Verdana" font-size="12">1,1</text>
<g id="association-ATTRIBUER">
	<path d="M 84 271 a 14 14 90 0 1 14 14 V 296 h -84 V 285 a 14 14 90 0 1 14 -14" fill="#92c5de" stroke="#92c5de" stroke-width="0"/>
	<path d="M 98 296.0 v 11 a 14 14 90 0 1 -14 14 H 28 a 14 14 90 0 1 -14 -14 V 296.0 H 84" fill="#d1e5f0" stroke="#d1e5f0" stroke-width="0"/>
	<rect x="14" y="271" width="84" height="50" fill="none" rx="14" stroke="#4393c3" stroke-width="2"/>
	<line x1="14" y1="296" x2="98" y2="296" stroke="#4393c3" stroke-width="1"/>
	<text x="21" y="288.7" fill="#000000" font-family="Verdana" font-size="12">ATTRIBUER</text>
</g>

<!-- Association LIER -->
<line x1="276" y1="170" x2="158" y2="170" stroke="#4393c3" stroke-width="2"/>
<text x="198" y="187.0" fill="#b2182b" font-family="Verdana" font-size="12">0,N</text>
<line x1="158" y1="296" x2="158" y2="170" stroke="#4393c3" stroke-width="2"/>
<text x="163.0" y="246" fill="#b2182b" font-family="Verdana" font-size="12">1,1</text>
<g id="association-LIER">
	<path d="M 166 145 a 14 14 90 0 1 14 14 V 170 h -44 V 159 a 14 14 90 0 1 14 -14" fill="#92c5de" stroke="#92c5de" stroke-width="0"/>
	<path d="M 180 170.0 v 11 a 14 14 90 0 1 -14 14 H 150 a 14 14 90 0 1 -14 -14 V 170.0 H 44" fill="#d1e5f0" stroke="#d1e5f0" stroke-width="0"/>
	<rect x="136" y="145" width="44" height="50" fill="none" rx="14" stroke="#4393c3" stroke-width="2"/>
	<line x1="136" y1="170" x2="180" y2="170" stroke="#4393c3" stroke-width="1"/>
	<text x="143" y="162.7" fill="#000000" font-family="Verdana" font-size="12">LIER</text>
</g>

<!-- Association UTILISER -->
<line x1="418" y1="296" x2="580" y2="296" stroke="#4393c3" stroke-width="2"/>
<text x="474" y="313.0" fill="#b2182b" font-family="Verdana" font-size="12">1,N</text>
<line x1="580" y1="170" x2="580" y2="296" stroke="#4393c3" stroke-width="2"/>
<text x="585.0" y="238" fill="#b2182b" font-family="Verdana" font-size="12">1,N</text>
<g id="association-UTILISER">
	<path d="M 645 271 a 14 14 90 0 1 14 14 V 296 h -158 V 285 a 14 14 90 0 1 14 -14" fill="#92c5de" stroke="#92c5de" stroke-width="0"/>
	<path d="M 659 296.0 v 11 a 14 14 90 0 1 -14 14 H 515 a 14 14 90 0 1 -14 -14 V 296.0 H 158" fill="#d1e5f0" stroke="#d1e5f0" stroke-width="0"/>
	<rect x="501" y="271" width="158" height="50" fill="none" rx="14" stroke="#4393c3" stroke-width="2"/>
	<line x1="501" y1="296" x2="659" y2="296" stroke="#4393c3" stroke-width="1"/>
	<text x="551" y="288.7" fill="#000000" font-family="Verdana" font-size="12">UTILISER</text>
	<text x="508" y="313.8" fill="#000000" font-family="Verdana" font-size="12">nombre_de_plateforme</text>
</g>

<!-- Association AVOIR -->
<line x1="418" y1="296" x2="276" y2="296" stroke="#4393c3" stroke-width="2"/>
<text x="340" y="313.0" fill="#b2182b" font-family="Verdana" font-size="12">1,N</text>
<line x1="276" y1="170" x2="276" y2="296" stroke="#4393c3" stroke-width="2"/>
<text x="281.0" y="255" fill="#b2182b" font-family="Verdana" font-size="12">1,1</text>
<g id="association-AVOIR">
	<path d="M 289 271 a 14 14 90 0 1 14 14 V 296 h -54 V 285 a 14 14 90 0 1 14 -14" fill="#92c5de" stroke="#92c5de" stroke-width="0"/>
	<path d="M 303 296.0 v 11 a 14 14 90 0 1 -14 14 H 263 a 14 14 90 0 1 -14 -14 V 296.0 H 54" fill="#d1e5f0" stroke="#d1e5f0" stroke-width="0"/>
	<rect x="249" y="271" width="54" height="50" fill="none" rx="14" stroke="#4393c3" stroke-width="2"/>
	<line x1="249" y1="296" x2="303" y2="296" stroke="#4393c3" stroke-width="1"/>
	<text x="256" y="288.7" fill="#000000" font-family="Verdana" font-size="12">AVOIR</text>
</g>

<!-- Association ACCUEILLIR -->
<line x1="276" y1="170" x2="418" y2="170" stroke="#4393c3" stroke-width="2"/>
<text x="332" y="187.0" fill="#b2182b" font-family="Verdana" font-size="12">1,N</text>
<line x1="580" y1="170" x2="418" y2="170" stroke="#4393c3" stroke-width="2"/>
<text x="499" y="187.0" fill="#b2182b" font-family="Verdana" font-size="12">1,N</text>
<g id="association-ACCUEILLIR">
	<path d="M 463 145 a 14 14 90 0 1 14 14 V 170 h -118 V 159 a 14 14 90 0 1 14 -14" fill="#92c5de" stroke="#92c5de" stroke-width="0"/>
	<path d="M 477 170.0 v 11 a 14 14 90 0 1 -14 14 H 373 a 14 14 90 0 1 -14 -14 V 170.0 H 118" fill="#d1e5f0" stroke="#d1e5f0" stroke-width="0"/>
	<rect x="359" y="145" width="118" height="50" fill="none" rx="14" stroke="#4393c3" stroke-width="2"/>
	<line x1="359" y1="170" x2="477" y2="170" stroke="#4393c3" stroke-width="1"/>
	<text x="381" y="162.7" fill="#000000" font-family="Verdana" font-size="12">ACCUEILLIR</text>
	<text x="366" y="187.8" fill="#000000" font-family="Verdana" font-size="12">nombre_de_jeux</text>
</g>

<!-- Entity UTILISATEUR -->
<g id="entity-UTILISATEUR">
	<g id="frame-UTILISATEUR">
		<rect x="9" y="111" width="94" height="25" fill="#f4a582" stroke="#f4a582" stroke-width="0"/>
		<rect x="9" y="136.0" width="94" height="93" fill="#fddbc7" stroke="#fddbc7" stroke-width="0"/>
		<rect x="9" y="111" width="94" height="118" fill="none" stroke="#d6604d" stroke-width="2"/>
		<line x1="9" y1="136" x2="103" y2="136" stroke="#d6604d" stroke-width="1"/>
	</g>
	<text x="14" y="128.7" fill="#000000" font-family="Verdana" font-size="12">UTILISATEUR</text>
	<text x="14" y="153.7" fill="#000000" font-family="Verdana" font-size="12">id_uti</text>
	<line x1="14" y1="156" x2="49" y2="156" stroke="#000000" stroke-width="1"/>
	<text x="14" y="170.8" fill="#000000" font-family="Verdana" font-size="12">nom_uti</text>
	<text x="14" y="187.8" fill="#000000" font-family="Verdana" font-size="12">email_uti</text>
	<text x="14" y="204.8" fill="#000000" font-family="Verdana" font-size="12">presse</text>
	<text x="14" y="221.8" fill="#000000" font-family="Verdana" font-size="12">admin</text>
</g>

<!-- Entity PLATEFORME -->
<g id="entity-PLATEFORME">
	<g id="frame-PLATEFORME">
		<rect x="526" y="119" width="108" height="25" fill="#f4a582" stroke="#f4a582" stroke-width="0"/>
		<rect x="526" y="144.0" width="108" height="77" fill="#fddbc7" stroke="#fddbc7" stroke-width="0"/>
		<rect x="526" y="119" width="108" height="102" fill="none" stroke="#d6604d" stroke-width="2"/>
		<line x1="526" y1="144" x2="634" y2="144" stroke="#d6604d" stroke-width="1"/>
	</g>
	<text x="539" y="136.7" fill="#000000" font-family="Verdana" font-size="12">PLATEFORME</text>
	<text x="531" y="161.7" fill="#000000" font-family="Verdana" font-size="12">id_plat</text>
	<line x1="531" y1="164" x2="573" y2="164" stroke="#000000" stroke-width="1"/>
	<text x="531" y="178.8" fill="#000000" font-family="Verdana" font-size="12">nom_plat</text>
	<text x="531" y="195.8" fill="#000000" font-family="Verdana" font-size="12">prix_plat</text>
	<text x="531" y="212.8" fill="#000000" font-family="Verdana" font-size="12">date_lancement</text>
</g>

<!-- Entity JEU -->
<g id="entity-JEU">
	<g id="frame-JEU">
		<rect x="225" y="102" width="102" height="25" fill="#f4a582" stroke="#f4a582" stroke-width="0"/>
		<rect x="225" y="127.0" width="102" height="111" fill="#fddbc7" stroke="#fddbc7" stroke-width="0"/>
		<rect x="225" y="102" width="102" height="136" fill="none" stroke="#d6604d" stroke-width="2"/>
		<line x1="225" y1="127" x2="327" y2="127" stroke="#d6604d" stroke-width="1"/>
	</g>
	<text x="264" y="119.7" fill="#000000" font-family="Verdana" font-size="12">JEU</text>
	<text x="230" y="144.7" fill="#000000" font-family="Verdana" font-size="12">id_jeu</text>
	<line x1="230" y1="147" x2="268" y2="147" stroke="#000000" stroke-width="1"/>
	<text x="230" y="161.7" fill="#000000" font-family="Verdana" font-size="12">nom_jeu</text>
	<text x="230" y="178.8" fill="#000000" font-family="Verdana" font-size="12">date_de_sortie</text>
	<text x="230" y="195.8" fill="#000000" font-family="Verdana" font-size="12">synopsis</text>
	<text x="230" y="212.8" fill="#000000" font-family="Verdana" font-size="12">images</text>
	<text x="230" y="229.8" fill="#000000" font-family="Verdana" font-size="12">videos</text>
</g>

<!-- Entity NOTE -->
<g id="entity-NOTE">
	<g id="frame-NOTE">
		<rect x="130" y="254" width="56" height="25" fill="#f4a582" stroke="#f4a582" stroke-width="0"/>
		<rect x="130" y="279.0" width="56" height="59" fill="#fddbc7" stroke="#fddbc7" stroke-width="0"/>
		<rect x="130" y="254" width="56" height="84" fill="none" stroke="#d6604d" stroke-width="2"/>
		<line x1="130" y1="279" x2="186" y2="279" stroke="#d6604d" stroke-width="1"/>
	</g>
	<text x="141" y="271.7" fill="#000000" font-family="Verdana" font-size="12">NOTE</text>
	<text x="135" y="296.8" fill="#000000" font-family="Verdana" font-size="12">id_note</text>
	<line x1="135" y1="299" x2="181" y2="299" stroke="#000000" stroke-width="1"/>
	<text x="135" y="313.8" fill="#000000" font-family="Verdana" font-size="12">note</text>
	<text x="135" y="330.8" fill="#000000" font-family="Verdana" font-size="12">critique</text>
</g>

<!-- Entity GENRE -->
<g id="entity-GENRE">
	<g id="frame-GENRE">
		<rect x="118" y="9" width="80" height="25" fill="#f4a582" stroke="#f4a582" stroke-width="0"/>
		<rect x="118" y="34.0" width="80" height="43" fill="#fddbc7" stroke="#fddbc7" stroke-width="0"/>
		<rect x="118" y="9" width="80" height="68" fill="none" stroke="#d6604d" stroke-width="2"/>
		<line x1="118" y1="34" x2="198" y2="34" stroke="#d6604d" stroke-width="1"/>
	</g>
	<text x="136" y="26.7" fill="#000000" font-family="Verdana" font-size="12">GENRE</text>
	<text x="123" y="51.8" fill="#000000" font-family="Verdana" font-size="12">id_genre</text>
	<line x1="123" y1="54" x2="177" y2="54" stroke="#000000" stroke-width="1"/>
	<text x="123" y="68.8" fill="#000000" font-family="Verdana" font-size="12">type_genre</text>
</g>

<!-- Entity EDITDEV -->
<g id="entity-EDITDEV">
	<g id="frame-EDITDEV">
		<rect x="367" y="228" width="102" height="25" fill="#f4a582" stroke="#f4a582" stroke-width="0"/>
		<rect x="367" y="253.0" width="102" height="111" fill="#fddbc7" stroke="#fddbc7" stroke-width="0"/>
		<rect x="367" y="228" width="102" height="136" fill="none" stroke="#d6604d" stroke-width="2"/>
		<line x1="367" y1="253" x2="469" y2="253" stroke="#d6604d" stroke-width="1"/>
	</g>
	<text x="390" y="245.7" fill="#000000" font-family="Verdana" font-size="12">EDITDEV</text>
	<text x="372" y="270.7" fill="#000000" font-family="Verdana" font-size="12">id_editDev</text>
	<line x1="372" y1="273" x2="438" y2="273" stroke="#000000" stroke-width="1"/>
	<text x="372" y="287.7" fill="#000000" font-family="Verdana" font-size="12">nom_editDev</text>
	<text x="372" y="304.8" fill="#000000" font-family="Verdana" font-size="12">date_fondation</text>
	<text x="372" y="321.8" fill="#000000" font-family="Verdana" font-size="12">siege</text>
	<text x="372" y="338.8" fill="#000000" font-family="Verdana" font-size="12">pays_local</text>
	<text x="372" y="355.8" fill="#000000" font-family="Verdana" font-size="12">description</text>
</g>
</svg>