<?xml version="1.0" standalone="no"?>
<!DOCTYPE svg PUBLIC "-//W3C//DTD SVG 1.1//EN"
"http://www.w3.org/Graphics/SVG/1.1/DTD/svg11.dtd">

<svg width="623" height="372" view_box="0 0 623 372"
xmlns="http://www.w3.org/2000/svg"
xmlns:link="http://www.w3.org/1999/xlink">\n\n<desc>Généré par Mocodo 2.3.7 le Sun, 29 Sep 2019 12:24:12</desc>

<rect id="frame" x="0" y="0" width="623" height="372" fill="#f7f7f7" stroke="none" stroke-width="0"/>

<!-- Association APPARTENIR -->
<line x1="158" y1="43" x2="263" y2="43" stroke="#4393c3" stroke-width="2"/>
<text x="190" y="60.0" fill="#b2182b" font-family="Verdana" font-size="12">0,N</text>
<line x1="263" y1="161" x2="263" y2="43" stroke="#4393c3" stroke-width="2"/>
<text x="268.0" y="85" fill="#b2182b" font-family="Verdana" font-size="12">1,N</text>
<g id="association-APPARTENIR">
	<path d="M 295 18 a 14 14 90 0 1 14 14 V 43 h -92 V 32 a 14 14 90 0 1 14 -14" fill="#92c5de" stroke="#92c5de" stroke-width="0"/>
	<path d="M 309 43.0 v 11 a 14 14 90 0 1 -14 14 H 231 a 14 14 90 0 1 -14 -14 V 43.0 H 92" fill="#d1e5f0" stroke="#d1e5f0" stroke-width="0"/>
	<rect x="217" y="18" width="92" height="50" fill="none" rx="14" stroke="#4393c3" stroke-width="2"/>
	<line x1="217" y1="43" x2="309" y2="43" stroke="#4393c3" stroke-width="1"/>
	<text x="224" y="35.7" fill="#000000" font-family="Verdana" font-size="12">APPARTENIR</text>
</g>

<!-- Association ATTRIBUER -->
<line x1="56" y1="161" x2="56" y2="287" stroke="#4393c3" stroke-width="2"/>
<text x="61.0" y="237" fill="#b2182b" font-family="Verdana" font-size="12">0,N</text>
<line x1="158" y1="287" x2="56" y2="287" stroke="#4393c3" stroke-width="2"/>
<text x="104" y="304.0" fill="#b2182b" font-family="Verdana" font-size="12">1,1</text>
<g id="association-ATTRIBUER">
	<path d="M 84 262 a 14 14 90 0 1 14 14 V 287 h -84 V 276 a 14 14 90 0 1 14 -14" fill="#92c5de" stroke="#92c5de" stroke-width="0"/>
	<path d="M 98 287.0 v 11 a 14 14 90 0 1 -14 14 H 28 a 14 14 90 0 1 -14 -14 V 287.0 H 84" fill="#d1e5f0" stroke="#d1e5f0" stroke-width="0"/>
	<rect x="14" y="262" width="84" height="50" fill="none" rx="14" stroke="#4393c3" stroke-width="2"/>
	<line x1="14" y1="287" x2="98" y2="287" stroke="#4393c3" stroke-width="1"/>
	<text x="21" y="279.7" fill="#000000" font-family="Verdana" font-size="12">ATTRIBUER</text>
</g>

<!-- Association LIER -->
<line x1="263" y1="161" x2="158" y2="161" stroke="#4393c3" stroke-width="2"/>
<text x="205" y="178.0" fill="#b2182b" font-family="Verdana" font-size="12">0,N</text>
<line x1="158" y1="287" x2="158" y2="161" stroke="#4393c3" stroke-width="2"/>
<text x="163.0" y="237" fill="#b2182b" font-family="Verdana" font-size="12">1,1</text>
<g id="association-LIER">
	<path d="M 166 136 a 14 14 90 0 1 14 14 V 161 h -44 V 150 a 14 14 90 0 1 14 -14" fill="#92c5de" stroke="#92c5de" stroke-width="0"/>
	<path d="M 180 161.0 v 11 a 14 14 90 0 1 -14 14 H 150 a 14 14 90 0 1 -14 -14 V 161.0 H 44" fill="#d1e5f0" stroke="#d1e5f0" stroke-width="0"/>
	<rect x="136" y="136" width="44" height="50" fill="none" rx="14" stroke="#4393c3" stroke-width="2"/>
	<line x1="136" y1="161" x2="180" y2="161" stroke="#4393c3" stroke-width="1"/>
	<text x="143" y="153.7" fill="#000000" font-family="Verdana" font-size="12">LIER</text>
</g>

<!-- Association UTILISER -->
<line x1="385" y1="287" x2="535" y2="287" stroke="#4393c3" stroke-width="2"/>
<text x="429" y="304.0" fill="#b2182b" font-family="Verdana" font-size="12">1,N</text>
<line x1="535" y1="161" x2="535" y2="287" stroke="#4393c3" stroke-width="2"/>
<text x="540.0" y="229" fill="#b2182b" font-family="Verdana" font-size="12">1,N</text>
<g id="association-UTILISER">
	<path d="M 600 262 a 14 14 90 0 1 14 14 V 287 h -158 V 276 a 14 14 90 0 1 14 -14" fill="#92c5de" stroke="#92c5de" stroke-width="0"/>
	<path d="M 614 287.0 v 11 a 14 14 90 0 1 -14 14 H 470 a 14 14 90 0 1 -14 -14 V 287.0 H 158" fill="#d1e5f0" stroke="#d1e5f0" stroke-width="0"/>
	<rect x="456" y="262" width="158" height="50" fill="none" rx="14" stroke="#4393c3" stroke-width="2"/>
	<line x1="456" y1="287" x2="614" y2="287" stroke="#4393c3" stroke-width="1"/>
	<text x="506" y="279.7" fill="#000000" font-family="Verdana" font-size="12">UTILISER</text>
	<text x="463" y="304.8" fill="#000000" font-family="Verdana" font-size="12">nombre_de_plateforme</text>
</g>

<!-- Association AVOIR -->
<line x1="385" y1="287" x2="263" y2="287" stroke="#4393c3" stroke-width="2"/>
<text x="319" y="304.0" fill="#b2182b" font-family="Verdana" font-size="12">1,N</text>
<line x1="263" y1="161" x2="263" y2="287" stroke="#4393c3" stroke-width="2"/>
<text x="268.0" y="246" fill="#b2182b" font-family="Verdana" font-size="12">1,1</text>
<g id="association-AVOIR">
	<path d="M 276 262 a 14 14 90 0 1 14 14 V 287 h -54 V 276 a 14 14 90 0 1 14 -14" fill="#92c5de" stroke="#92c5de" stroke-width="0"/>
	<path d="M 290 287.0 v 11 a 14 14 90 0 1 -14 14 H 250 a 14 14 90 0 1 -14 -14 V 287.0 H 54" fill="#d1e5f0" stroke="#d1e5f0" stroke-width="0"/>
	<rect x="236" y="262" width="54" height="50" fill="none" rx="14" stroke="#4393c3" stroke-width="2"/>
	<line x1="236" y1="287" x2="290" y2="287" stroke="#4393c3" stroke-width="1"/>
	<text x="243" y="279.7" fill="#000000" font-family="Verdana" font-size="12">AVOIR</text>
</g>

<!-- Association ACCUEILLIR -->
<line x1="263" y1="161" x2="385" y2="161" stroke="#4393c3" stroke-width="2"/>
<text x="299" y="178.0" fill="#b2182b" font-family="Verdana" font-size="12">1,N</text>
<line x1="535" y1="161" x2="385" y2="161" stroke="#4393c3" stroke-width="2"/>
<text x="462" y="178.0" fill="#b2182b" font-family="Verdana" font-size="12">1,N</text>
<g id="association-ACCUEILLIR">
	<path d="M 430 136 a 14 14 90 0 1 14 14 V 161 h -118 V 150 a 14 14 90 0 1 14 -14" fill="#92c5de" stroke="#92c5de" stroke-width="0"/>
	<path d="M 444 161.0 v 11 a 14 14 90 0 1 -14 14 H 340 a 14 14 90 0 1 -14 -14 V 161.0 H 118" fill="#d1e5f0" stroke="#d1e5f0" stroke-width="0"/>
	<rect x="326" y="136" width="118" height="50" fill="none" rx="14" stroke="#4393c3" stroke-width="2"/>
	<line x1="326" y1="161" x2="444" y2="161" stroke="#4393c3" stroke-width="1"/>
	<text x="348" y="153.7" fill="#000000" font-family="Verdana" font-size="12">ACCUEILLIR</text>
	<text x="333" y="178.8" fill="#000000" font-family="Verdana" font-size="12">nombre_de_jeux</text>
</g>

<!-- Entity UTILISATEUR -->
<g id="entity-UTILISATEUR">
	<g id="frame-UTILISATEUR">
		<rect x="9" y="102" width="94" height="25" fill="#f4a582" stroke="#f4a582" stroke-width="0"/>
		<rect x="9" y="127.0" width="94" height="93" fill="#fddbc7" stroke="#fddbc7" stroke-width="0"/>
		<rect x="9" y="102" width="94" height="118" fill="none" stroke="#d6604d" stroke-width="2"/>
		<line x1="9" y1="127" x2="103" y2="127" stroke="#d6604d" stroke-width="1"/>
	</g>
	<text x="14" y="119.7" fill="#000000" font-family="Verdana" font-size="12">UTILISATEUR</text>
	<text x="14" y="144.7" fill="#000000" font-family="Verdana" font-size="12">id</text>
	<line x1="14" y1="147" x2="26" y2="147" stroke="#000000" stroke-width="1"/>
	<text x="14" y="161.8" fill="#000000" font-family="Verdana" font-size="12">nom</text>
	<text x="14" y="178.8" fill="#000000" font-family="Verdana" font-size="12">email</text>
	<text x="14" y="195.8" fill="#000000" font-family="Verdana" font-size="12">presse</text>
	<text x="14" y="212.8" fill="#000000" font-family="Verdana" font-size="12">admin</text>
</g>

<!-- Entity PLATEFORME -->
<g id="entity-PLATEFORME">
	<g id="frame-PLATEFORME">
		<rect x="489" y="110" width="92" height="25" fill="#f4a582" stroke="#f4a582" stroke-width="0"/>
		<rect x="489" y="135.0" width="92" height="77" fill="#fddbc7" stroke="#fddbc7" stroke-width="0"/>
		<rect x="489" y="110" width="92" height="102" fill="none" stroke="#d6604d" stroke-width="2"/>
		<line x1="489" y1="135" x2="581" y2="135" stroke="#d6604d" stroke-width="1"/>
	</g>
	<text x="494" y="127.7" fill="#000000" font-family="Verdana" font-size="12">PLATEFORME</text>
	<text x="494" y="152.7" fill="#000000" font-family="Verdana" font-size="12">id</text>
	<line x1="494" y1="155" x2="506" y2="155" stroke="#000000" stroke-width="1"/>
	<text x="494" y="169.8" fill="#000000" font-family="Verdana" font-size="12">nom</text>
	<text x="494" y="186.8" fill="#000000" font-family="Verdana" font-size="12">prix</text>
	<text x="494" y="203.8" fill="#000000" font-family="Verdana" font-size="12">lancement</text>
</g>

<!-- Entity JEU -->
<g id="entity-JEU">
	<g id="frame-JEU">
		<rect x="232" y="93" width="62" height="25" fill="#f4a582" stroke="#f4a582" stroke-width="0"/>
		<rect x="232" y="118.0" width="62" height="111" fill="#fddbc7" stroke="#fddbc7" stroke-width="0"/>
		<rect x="232" y="93" width="62" height="136" fill="none" stroke="#d6604d" stroke-width="2"/>
		<line x1="232" y1="118" x2="294" y2="118" stroke="#d6604d" stroke-width="1"/>
	</g>
	<text x="251" y="110.7" fill="#000000" font-family="Verdana" font-size="12">JEU</text>
	<text x="237" y="135.7" fill="#000000" font-family="Verdana" font-size="12">id</text>
	<line x1="237" y1="138" x2="249" y2="138" stroke="#000000" stroke-width="1"/>
	<text x="237" y="152.7" fill="#000000" font-family="Verdana" font-size="12">nom</text>
	<text x="237" y="169.8" fill="#000000" font-family="Verdana" font-size="12">sortie</text>
	<text x="237" y="186.8" fill="#000000" font-family="Verdana" font-size="12">synopsis</text>
	<text x="237" y="203.8" fill="#000000" font-family="Verdana" font-size="12">images</text>
	<text x="237" y="220.8" fill="#000000" font-family="Verdana" font-size="12">videos</text>
</g>

<!-- Entity NOTE -->
<g id="entity-NOTE">
	<g id="frame-NOTE">
		<rect x="130" y="245" width="56" height="25" fill="#f4a582" stroke="#f4a582" stroke-width="0"/>
		<rect x="130" y="270.0" width="56" height="59" fill="#fddbc7" stroke="#fddbc7" stroke-width="0"/>
		<rect x="130" y="245" width="56" height="84" fill="none" stroke="#d6604d" stroke-width="2"/>
		<line x1="130" y1="270" x2="186" y2="270" stroke="#d6604d" stroke-width="1"/>
	</g>
	<text x="141" y="262.7" fill="#000000" font-family="Verdana" font-size="12">NOTE</text>
	<text x="135" y="287.8" fill="#000000" font-family="Verdana" font-size="12">id</text>
	<line x1="135" y1="290" x2="147" y2="290" stroke="#000000" stroke-width="1"/>
	<text x="135" y="304.8" fill="#000000" font-family="Verdana" font-size="12">note</text>
	<text x="135" y="321.8" fill="#000000" font-family="Verdana" font-size="12">critique</text>
</g>

<!-- Entity GENRE -->
<g id="entity-GENRE">
	<g id="frame-GENRE">
		<rect x="131" y="9" width="54" height="25" fill="#f4a582" stroke="#f4a582" stroke-width="0"/>
		<rect x="131" y="34.0" width="54" height="43" fill="#fddbc7" stroke="#fddbc7" stroke-width="0"/>
		<rect x="131" y="9" width="54" height="68" fill="none" stroke="#d6604d" stroke-width="2"/>
		<line x1="131" y1="34" x2="185" y2="34" stroke="#d6604d" stroke-width="1"/>
	</g>
	<text x="136" y="26.7" fill="#000000" font-family="Verdana" font-size="12">GENRE</text>
	<text x="136" y="51.8" fill="#000000" font-family="Verdana" font-size="12">id</text>
	<line x1="136" y1="54" x2="148" y2="54" stroke="#000000" stroke-width="1"/>
	<text x="136" y="68.8" fill="#000000" font-family="Verdana" font-size="12">type</text>
</g>

<!-- Entity EDITDEV -->
<g id="entity-EDITDEV">
	<g id="frame-EDITDEV">
		<rect x="346" y="211" width="78" height="25" fill="#f4a582" stroke="#f4a582" stroke-width="0"/>
		<rect x="346" y="236.0" width="78" height="127" fill="#fddbc7" stroke="#fddbc7" stroke-width="0"/>
		<rect x="346" y="211" width="78" height="152" fill="none" stroke="#d6604d" stroke-width="2"/>
		<line x1="346" y1="236" x2="424" y2="236" stroke="#d6604d" stroke-width="1"/>
	</g>
	<text x="357" y="228.7" fill="#000000" font-family="Verdana" font-size="12">EDITDEV</text>
	<text x="351" y="253.7" fill="#000000" font-family="Verdana" font-size="12">id</text>
	<line x1="351" y1="256" x2="363" y2="256" stroke="#000000" stroke-width="1"/>
	<text x="351" y="270.7" fill="#000000" font-family="Verdana" font-size="12">nom</text>
	<text x="351" y="287.8" fill="#000000" font-family="Verdana" font-size="12">date</text>
	<text x="351" y="304.8" fill="#000000" font-family="Verdana" font-size="12">siege</text>
	<text x="351" y="321.8" fill="#000000" font-family="Verdana" font-size="12">pays_local</text>
	<text x="351" y="338.8" fill="#000000" font-family="Verdana" font-size="12">description</text>
	<text x="351" y="355.8" fill="#000000" font-family="Verdana" font-size="12">dev</text>
</g>
</svg>